Coordinates
version=1
nRows=17
nColumns=24
inDegrees=yes

Units are S.I. units (second, meters, Newtons, ...)
Angles are in degrees.

endheader
time	pelvis_tilt	pelvis_list	pelvis_rotation	pelvis_tx	pelvis_ty	pelvis_tz	hip_flexion_r	hip_adduction_r	hip_rotation_r	knee_angle_r	ankle_angle_r	subtalar_angle_r	mtp_angle_r	hip_flexion_l	hip_adduction_l	hip_rotation_l	knee_angle_l	ankle_angle_l	subtalar_angle_l	mtp_angle_l	lumbar_extension	lumbar_bending	lumbar_rotation
      1.28400000	      0.12329576	      2.68583883	     -4.17181999	      0.28768037	      1.07780413	      0.33465595	     12.32211604	     -6.87825303	     -5.80426803	    -69.12623904	     -2.21241551	     -5.22377168	      2.99792614	     10.81964018	      5.36382499	      2.41113971	    -18.45877830	      9.71846305	      0.16072453	     -4.67925630	    -11.10546968	     -3.81121866	     -0.10144714
      1.28816667	      0.15000632	      2.53136162	     -4.11388323	      0.29272472	      1.07894901	      0.33443879	     12.80691487	     -6.70884642	     -5.90704999	    -68.95504991	     -1.81915359	     -5.08522361	      2.96844837	     10.28259661	      5.23083328	      2.51751534	    -18.05795644	      9.77422287	      0.19427644	     -4.68096332	    -11.17933222	     -3.57380181	     -0.33329573
      1.29233333	      0.15205543	      2.38427614	     -4.05526215	      0.29776199	      1.08001535	      0.33424272	     13.31229898	     -6.53828391	     -6.00451540	    -68.73925314	     -1.42071971	     -4.96067163	      2.95135064	      9.77357707	      5.09844820	      2.60512550	    -17.65380411	      9.80205937	      0.23468216	     -4.68213930	    -11.22042092	     -3.35399914	     -0.49676840
      1.29650000	      0.16968921	      2.24063799	     -3.98840148	      0.30280414	      1.08109016	      0.33403744	     13.78382512	     -6.37625283	     -6.11912782	    -68.46265948	     -1.02364156	     -4.75907880	      2.93986426	      9.24100991	      4.97124144	      2.70115932	    -17.23260583	      9.84070634	      0.26678447	     -4.68225989	    -11.26291289	     -3.14768880	     -0.68455553
      1.30066667	      0.17026675	      2.09902206	     -3.91151073	      0.30782019	      1.08208482	      0.33382576	     14.26652534	     -6.21352676	     -6.24041918	    -68.14727658	     -0.60968342	     -4.51942498	      2.93583705	      8.73246323	      4.84439177	      2.80523612	    -16.81750134	      9.86624514	      0.29899875	     -4.68160546	    -11.29448105	     -2.93528317	     -0.87019075
      1.30483333	      0.17184449	      1.93526816	     -3.82815635	      0.31281152	      1.08307819	      0.33360417	     14.73030066	     -6.02066038	     -6.36667533	    -67.76588776	     -0.20424838	     -4.25997757	      2.94290171	      8.22823141	      4.69071329	      2.90071321	    -16.41245655	      9.88530953	      0.35081623	     -4.68052287	    -11.34195822	     -2.69227355	     -1.00595085
      1.30900000	      0.18426515	      1.81313878	     -3.74093244	      0.31780946	      1.08401346	      0.33338845	     15.18043352	     -5.88357955	     -6.50287360	    -67.36211063	      0.22869585	     -3.91649766	      2.95676499	      7.70043792	      4.58457317	      3.02419733	    -15.97313945	      9.90977152	      0.36553982	     -4.67773588	    -11.37229978	     -2.50514623	     -1.23217360
      1.31316667	      0.19306353	      1.66320315	     -3.64433406	      0.32278413	      1.08492823	      0.33316200	     15.61490609	     -5.71020285	     -6.64798074	    -66.89318310	      0.64442685	     -3.57511435	      2.97723900	      7.18527827	      4.44475203	      3.14014395	    -15.55219306	      9.93072149	      0.39905070	     -4.67403162	    -11.41589023	     -2.27754221	     -1.41048278
      1.31733333	      0.16865999	      1.51468750	     -3.54752402	      0.32776846	      1.08573833	      0.33294563	     16.07619685	     -5.53292723	     -6.79585322	    -66.38238732	      1.05415282	     -3.26680142	      2.99689819	      6.71426074	      4.29832414	      3.21723925	    -15.14552131	      9.93323873	      0.46001606	     -4.67248142	    -11.40723657	     -2.04195338	     -1.50872146
      1.32150000	      0.18906897	      1.39918444	     -3.44477870	      0.33269096	      1.08656050	      0.33272767	     16.48667316	     -5.40069810	     -6.94168248	    -65.84286815	      1.50288123	     -2.79336148	      3.03024347	      6.18701933	      4.19662874	      3.36925802	    -14.71118897	      9.97164712	      0.47245052	     -4.66774945	    -11.47913547	     -1.87270771	     -1.74770462
      1.32566667	      0.17951086	      1.25439547	     -3.33596411	      0.33764544	      1.08731860	      0.33250964	     16.90589096	     -5.22789763	     -7.09905268	    -65.23655245	      1.91234360	     -2.42567621	      3.06043373	      5.70083224	      4.05482249	      3.48327854	    -14.29909132	      9.97630482	      0.50629070	     -4.66441514	    -11.50006162	     -1.65502781	     -1.90139217
      1.32983333	      0.18222503	      1.14334738	     -3.22474673	      0.34258825	      1.08801450	      0.33227731	     17.31031370	     -5.10341249	     -7.26539171	    -64.61052307	      2.34084443	     -1.99273015	      3.10232007	      5.19456623	      3.95273262	      3.61965999	    -13.86401778	     10.00518732	      0.51242865	     -4.65851374	    -11.52214576	     -1.45936094	     -2.12160596
      1.33400000	      0.17254958	      1.03223920	     -3.11409301	      0.34752049	      1.08865034	      0.33206903	     17.71664840	     -4.97034925	     -7.42373813	    -63.93947685	      2.76371304	     -1.61178630	      3.15864015	      4.70517562	      3.84612051	      3.76002183	    -13.43282801	      9.98647458	      0.50062805	     -4.65072901	    -11.54169253	     -1.27578620	     -2.34402097
      1.33816667	      0.13847806	      0.92081660	     -3.00343323	      0.35246633	      1.08919009	      0.33186947	     18.13782610	     -4.83594918	     -7.58678819	    -63.22670209	      3.15574883	     -1.20845241	      3.20382681	      4.25225774	      3.73394198	      3.87446480	    -13.02542920	     10.03046034	      0.53046787	     -4.64390295	    -11.52129016	     -1.09050430	     -2.48722953
      1.34233333	      0.11695518	      0.82403700	     -2.89248321	      0.35739318	      1.08969038	      0.33168231	     18.53688953	     -4.71800578	     -7.74861016	    -62.48009192	      3.55609168	     -0.81554054	      3.25065814	      3.78657778	      3.63614404	      3.99030655	    -12.61235345	     10.05406096	      0.55029576	     -4.63749856	    -11.52055150	     -0.92471406	     -2.65687602
      1.34650000	      0.08483308	      0.72290035	     -2.78259636	      0.36232394	      1.09012059	      0.33150295	     18.93369117	     -4.59119764	     -7.90821289	    -61.68970934	      3.94062878	     -0.44800117	      3.29961435	      3.33577873	      3.53129378	      4.10591177	    -12.20887961	     10.08142398	      0.56913190	     -4.63028607	    -11.50728119	     -0.75073511	     -2.82961966
      1.35066667	      0.05547020	      0.63149152	     -2.67500009	      0.36724948	      1.09051446	      0.33133717	     19.31651121	     -4.47459237	     -8.06551526	    -60.85963776	      4.30970029	     -0.09647666	      3.34713167	      2.88320395	      3.43449914	      4.21770133	    -11.80343496	     10.10951144	      0.58445182	     -4.62346557	    -11.49544982	     -0.59433976	     -2.99078457
